<svg width="668" height="668" viewBox="0 0 668 668" fill="none" xmlns="http://www.w3.org/2000/svg">
<path fill-rule="evenodd" clip-rule="evenodd" d="M0.666992 334C0.666992 149.905 149.905 0.666679 334 0.666679C518.094 0.666679 667.334 149.905 667.334 334C667.334 518.093 518.094 667.333 334 667.333C149.905 667.333 0.666992 518.093 0.666992 334ZM457.57 243.763C470.587 256.781 470.587 277.887 457.57 290.903L334.81 413.663C315.954 432.52 285.38 432.52 266.523 413.663L210.43 357.57C197.413 344.553 197.413 323.447 210.43 310.43C223.448 297.413 244.553 297.413 257.571 310.43L300.667 353.527L410.43 243.763C423.447 230.746 444.554 230.746 457.57 243.763Z" fill="#B7B7B7"/>
</svg>
