<svg width="666" height="666" viewBox="0 0 666 666" fill="none" xmlns="http://www.w3.org/2000/svg">
<g clip-path="url(#clip0_290_88)">
<path fill-rule="evenodd" clip-rule="evenodd" d="M-0.333008 333C-0.333008 148.905 148.905 -0.333252 333 -0.333252C517.094 -0.333252 666.334 148.905 666.334 333C666.334 517.093 517.094 666.333 333 666.333C148.905 666.333 -0.333008 517.093 -0.333008 333ZM456.57 242.763C469.587 255.781 469.587 276.887 456.57 289.903L333.81 412.663C314.954 431.52 284.38 431.52 265.523 412.663L209.43 356.57C196.413 343.553 196.413 322.447 209.43 309.43C222.448 296.413 243.553 296.413 256.571 309.43L299.667 352.527L409.43 242.763C422.447 229.746 443.554 229.746 456.57 242.763Z" fill="#F4F4F4" fill-opacity="0.956863"/>
</g>
<defs>
<clipPath id="clip0_290_88">
<rect width="666" height="666" fill="white"/>
</clipPath>
</defs>
</svg>
