<svg width="68" height="68" viewBox="0 0 68 68" fill="none" xmlns="http://www.w3.org/2000/svg">
<path fill-rule="evenodd" clip-rule="evenodd" d="M27.7131 5.26922L33.971 4.56502C35.6986 4.36928 37.2616 5.61255 37.4607 7.34088L37.159 18.4647C37.0215 20.2777 36.1185 21.7489 34.3909 21.9447L30.5597 22.3757C30.4555 25.7573 30.5165 29.5831 30.9591 33.4196C31.46 37.7577 32.407 42.0924 33.394 45.8194L37.0957 45.4042C38.8233 45.2085 40.0388 46.4406 40.5855 48.1801L43.4127 58.9518C43.9414 60.6889 42.3734 62.237 40.6446 62.4318L34.3877 63.1348C30.93 63.5243 28.9136 60.9147 27.4082 57.5831C27.4082 57.5831 23.1347 47.1438 21.7711 35.321C20.4886 24.2001 22.1769 12.2292 22.1769 12.2292C23.3592 8.68952 24.2564 5.65755 27.7131 5.26922Z" fill="#F4F4F4"/>
</svg>
