<svg width="34" height="33" viewBox="0 0 34 33" fill="none" xmlns="http://www.w3.org/2000/svg">
<g clip-path="url(#clip0_125_581)">
<path d="M32.4951 15.7859C32.4923 15.6659 32.4417 15.5498 32.3544 15.463C32.2671 15.3762 32.1502 15.326 32.0295 15.3232L30.6012 15.2906L30.5865 14.6533C30.5837 14.5333 30.5331 14.4172 30.4458 14.3304C30.4457 14.3303 30.4455 14.3301 30.4454 14.33L29.5855 13.4775C29.4982 13.391 29.3815 13.3409 29.261 13.3381L28.1562 13.3129C28.0357 13.3102 27.9212 13.355 27.8378 13.4376L27.7752 13.4998L27.7647 13.0458C27.7619 12.9258 27.7113 12.8097 27.624 12.7229C27.6238 12.7228 27.6237 12.7227 27.6236 12.7225L26.7637 11.8701C26.6764 11.7836 26.5597 11.7334 26.4392 11.7307L25.3344 11.7055C25.2139 11.7027 25.0994 11.7475 25.016 11.8302L24.1946 12.6443C24.111 12.7272 24.0655 12.8413 24.0683 12.9614L24.1154 14.9991L23.3534 14.9817C22.764 14.9682 22.1959 15.1648 21.7565 15.5276C21.2997 15.1443 20.7222 14.9216 20.1328 14.9081L14.1217 14.771C13.5323 14.7575 12.9645 14.9542 12.5248 15.3172C12.0674 14.9338 11.4897 14.7109 10.9012 14.6975L10.1737 14.6809L10.1265 12.6433C10.1237 12.5233 10.0732 12.4072 9.98586 12.3204C9.98573 12.3203 9.9856 12.3202 9.98543 12.32L9.12553 11.4676C9.0383 11.3811 8.92157 11.3309 8.80105 11.3282L7.69636 11.303C7.57587 11.3002 7.46134 11.3451 7.37798 11.4277L6.55657 12.2418C6.47293 12.3248 6.42751 12.4388 6.43025 12.559L6.44075 13.013L6.37514 12.9479C6.2879 12.8614 6.17115 12.8113 6.05066 12.8085L4.94587 12.7833C4.82535 12.7806 4.71085 12.8254 4.6275 12.9081L3.80611 13.7221C3.72247 13.8051 3.67705 13.9191 3.6798 14.0393L3.69453 14.6767L2.24891 14.6437C1.99757 14.638 1.79848 14.8358 1.80422 15.0856L1.84746 16.9594C1.85023 17.0793 1.90084 17.1955 1.98815 17.2822C2.07545 17.369 2.19231 17.4192 2.31302 17.422L3.75874 17.455L3.76683 17.8051C3.76964 17.925 3.82021 18.0412 3.90752 18.1279L3.90795 18.1283L4.76785 18.9808C4.85508 19.0673 4.97181 19.1174 5.09233 19.1202L6.19712 19.1454C6.3176 19.1482 6.43213 19.1033 6.51549 19.0207L6.57816 18.9585L6.58865 19.4126C6.59146 19.5325 6.64203 19.6486 6.72934 19.7354L6.72977 19.7358L7.5897 20.5883C7.67693 20.6748 7.79369 20.7249 7.91418 20.7277L9.01893 20.7529C9.13945 20.7556 9.25395 20.7108 9.33731 20.6281L10.1588 19.8141C10.2424 19.7312 10.2878 19.6171 10.2851 19.4969L10.238 17.4592L10.8526 17.4733C11.8941 18.3791 13.3966 18.4116 14.307 17.5521L15.271 17.5741C15.5224 17.5799 15.7215 17.3821 15.7157 17.1323C15.7099 16.8825 15.5015 16.6755 15.2501 16.6696L14.1655 16.6449C13.9954 16.6409 13.8326 16.7076 13.7194 16.8277C13.2103 17.3657 12.1762 17.4927 11.3883 16.7634C11.3873 16.7623 11.3862 16.7613 11.3851 16.7602C11.2676 16.6434 11.1085 16.575 10.9446 16.5714L10.2171 16.5548L10.1948 15.5854L10.9223 15.602C11.3576 15.612 11.7859 15.8021 12.0913 16.1234C12.3385 16.3804 12.7605 16.3934 12.9942 16.1466C13.2869 15.8373 13.7055 15.6655 14.1428 15.6755L20.1538 15.8127C20.5913 15.8227 21.0172 16.0132 21.3253 16.3365C21.5698 16.595 21.9954 16.5996 22.2293 16.3535C22.5213 16.0465 22.9386 15.8762 23.3744 15.8862L24.1019 15.9028L24.1244 16.8721L23.3968 16.8555C23.2356 16.8519 23.0809 16.9118 22.9685 17.0207C22.3277 17.5874 21.2878 17.6786 20.6343 16.9889C20.5146 16.8609 20.3482 16.7859 20.1763 16.7821L19.1863 16.7595C18.9349 16.7537 18.7359 16.9515 18.7416 17.2014C18.7474 17.4511 18.9557 17.6582 19.2072 17.664L20.076 17.6838C21.0227 18.5842 22.4973 18.6202 23.5281 17.7626L24.1798 17.7775L24.2269 19.8152C24.2297 19.9351 24.2803 20.0512 24.3676 20.138L24.368 20.1384L25.2279 20.9909C25.3151 21.0774 25.4319 21.1275 25.5524 21.1303L26.6572 21.1555C26.7777 21.1582 26.8922 21.1134 26.9755 21.0307L27.7969 20.2166C27.8806 20.1337 27.926 20.0196 27.9233 19.8995L27.9128 19.4455L27.9784 19.5105C28.0656 19.597 28.1824 19.6472 28.3029 19.6499L29.4076 19.6751C29.5281 19.6779 29.6427 19.633 29.726 19.5504L30.5474 18.7363C30.631 18.6534 30.6765 18.5393 30.6737 18.4192L30.6656 18.0691L32.0939 18.1017C32.3453 18.1074 32.5444 17.9096 32.5386 17.6598L32.4951 15.7859ZM2.74729 16.5279L2.72492 15.5585L3.7155 15.5812L3.7379 16.5506L2.74729 16.5279ZM5.98808 18.2366L5.25968 18.22L4.67281 17.6382L4.59445 14.2477L5.15504 13.6921L5.88343 13.7087L6.4703 14.2905L6.54866 17.681L5.98808 18.2366ZM8.80983 19.8441L8.08147 19.8275L7.49456 19.2457L7.34484 12.7674L7.90546 12.2117L8.63385 12.2284L9.22073 12.8101L9.37048 19.2885L8.80983 19.8441ZM26.4479 20.2466L25.7195 20.2299L25.1326 19.6482L24.9829 13.1699L25.5435 12.6142L26.2719 12.6309L26.8588 13.2127L27.0085 19.691L26.4479 20.2466ZM29.1984 18.7662L28.47 18.7496L27.8831 18.1678L27.8047 14.7773L28.3653 14.2217L29.0937 14.2383L29.6806 14.8201L29.759 18.2106L29.1984 18.7662ZM30.6446 17.1645L30.6221 16.1951L31.5953 16.2173L31.6177 17.1867L30.6446 17.1645Z" fill="#D1D1D1"/>
<path d="M16.7737 17.0901C16.7286 17.3308 16.9005 17.5756 17.1432 17.6297C17.387 17.6841 17.6275 17.5272 17.6702 17.2873C17.7131 17.0461 17.5445 16.8018 17.3004 16.7473C17.0564 16.6929 16.8165 16.8502 16.7737 17.0901Z" fill="#D1D1D1"/>
</g>
<defs>
<clipPath id="clip0_125_581">
<rect width="23.7616" height="22.6947" fill="white" transform="matrix(0.709349 0.704858 -0.709349 0.704857 16.793 0.00012207)"/>
</clipPath>
</defs>
</svg>
