<svg width="28" height="32" viewBox="0 0 28 32" fill="none" xmlns="http://www.w3.org/2000/svg">
<g clip-path="url(#clip0_249_124)">
<path d="M27.2964 30.2087C27.2964 30.1525 25.1251 24.7525 25.1251 21.625C25.1642 20.4902 25.4482 19.3773 25.9576 18.3625C26.9241 16.2055 27.4079 13.8634 27.3751 11.5C27.3751 4.98625 22.1664 0.25 15.0001 0.25C8.45263 0.25 4.06513 3.34375 2.62513 8.98C2.10574 10.8679 2.06707 12.8558 2.51263 14.7625L0.67888 18.4075C0.459526 18.9417 0.453983 19.5398 0.663397 20.078C0.87281 20.6162 1.28115 21.0533 1.80388 21.2987C2.11835 21.4246 2.44705 21.5115 2.78263 21.5575L3.75013 26.2825C3.81338 26.749 4.03125 27.1807 4.36888 27.5087C4.78441 27.8421 5.26163 28.0902 5.77321 28.2389C6.28478 28.3875 6.82065 28.4338 7.35013 28.375C8.06469 28.2812 8.78757 28.471 9.36388 28.9037C9.51098 29.0088 9.6306 29.1477 9.71263 29.3088L10.6239 31.1313C10.6834 31.2741 10.7716 31.4031 10.8832 31.5102C10.9948 31.6174 11.1273 31.7004 11.2724 31.754C11.4175 31.8076 11.5721 31.8308 11.7266 31.8219C11.881 31.8131 12.032 31.7725 12.1701 31.7027C12.3081 31.6329 12.4303 31.5354 12.529 31.4162C12.6276 31.2971 12.7006 31.1589 12.7435 31.0102C12.7863 30.8615 12.798 30.7057 12.7779 30.5523C12.7577 30.3989 12.7061 30.2513 12.6264 30.1187L11.7264 28.3075C11.4844 27.8316 11.1383 27.4163 10.7139 27.0925C9.74031 26.3777 8.54327 26.0346 7.33888 26.125C6.88127 26.1931 6.41379 26.1184 6.00013 25.9112L4.87513 20.2862C4.82486 20.0262 4.68447 19.7923 4.47869 19.6256C4.2729 19.4589 4.01491 19.3702 3.75013 19.375C3.41846 19.3883 3.08705 19.3426 2.77138 19.24L4.75138 15.3925C4.81823 15.2459 4.85283 15.0867 4.85283 14.9256C4.85283 14.7645 4.81823 14.6053 4.75138 14.4587C4.28723 12.8452 4.28723 11.1335 4.75138 9.52C6.00013 4.93 9.49888 2.5 15.0001 2.5C20.8614 2.5 25.1251 6.28 25.1251 11.5C25.1595 13.5703 24.733 15.6224 23.8764 17.5075C23.2497 18.7918 22.9081 20.1964 22.8751 21.625C22.8751 25.18 25.1251 30.805 25.2039 31.0413C25.2872 31.2506 25.4315 31.43 25.6181 31.5564C25.8046 31.6828 26.0248 31.7502 26.2501 31.75C26.3926 31.7503 26.5339 31.7236 26.6664 31.6712C26.8039 31.6167 26.9292 31.5356 27.0353 31.4325C27.1414 31.3295 27.2261 31.2065 27.2847 31.0706C27.3432 30.9348 27.3743 30.7888 27.3763 30.6409C27.3784 30.493 27.3512 30.3461 27.2964 30.2087Z" fill="#D1D1D1"/>
<path d="M15 14.875C16.2426 14.875 17.25 13.8676 17.25 12.625C17.25 11.3824 16.2426 10.375 15 10.375C13.7574 10.375 12.75 11.3824 12.75 12.625C12.75 13.8676 13.7574 14.875 15 14.875Z" fill="#D1D1D1"/>
<path d="M23.4375 12.31C23.4379 11.8369 23.2892 11.3757 23.0125 10.992C22.7359 10.6083 22.3452 10.3215 21.8962 10.1725L21.3563 9.9925L21.6038 9.48625C21.8186 9.06292 21.894 8.58249 21.8192 8.11369C21.7445 7.6449 21.5233 7.21176 21.1875 6.87625L20.7488 6.4375C20.4141 6.1041 19.983 5.88448 19.5166 5.80977C19.0502 5.73506 18.572 5.80905 18.15 6.02125L17.6325 6.26875L17.4525 5.72875C17.3035 5.27975 17.0167 4.88915 16.633 4.61246C16.2493 4.33577 15.7881 4.18707 15.315 4.1875H14.685C14.2119 4.18707 13.7507 4.33577 13.367 4.61246C12.9833 4.88915 12.6965 5.27975 12.5475 5.72875L12.3675 6.26875L11.8613 6.02125C11.4379 5.80642 10.9575 5.731 10.4887 5.80576C10.0199 5.88053 9.58676 6.10165 9.25125 6.4375L8.8125 6.87625C8.4791 7.2109 8.25949 7.64198 8.18477 8.10842C8.11006 8.57485 8.18405 9.05297 8.39625 9.475L8.64375 9.9925L8.10375 10.1725C7.65475 10.3215 7.26415 10.6083 6.98746 10.992C6.71077 11.3757 6.56207 11.8369 6.5625 12.31V12.94C6.56207 13.4131 6.71077 13.8743 6.98746 14.258C7.26415 14.6417 7.65475 14.9285 8.10375 15.0775L8.64375 15.2575L8.39625 15.7638C8.18142 16.1871 8.106 16.6675 8.18076 17.1363C8.25553 17.6051 8.47665 18.0382 8.8125 18.3738L9.25125 18.8125C9.58459 19.1477 10.0151 19.3695 10.4815 19.4462C10.948 19.5229 11.4268 19.4508 11.85 19.24L12.3675 18.9813L12.5475 19.5212C12.6965 19.9702 12.9833 20.3609 13.367 20.6375C13.7507 20.9142 14.2119 21.0629 14.685 21.0625H15.315C15.7881 21.0629 16.2493 20.9142 16.633 20.6375C17.0167 20.3609 17.3035 19.9702 17.4525 19.5212L17.6325 18.9813L18.1388 19.2288C18.5621 19.4436 19.0425 19.519 19.5113 19.4442C19.9801 19.3695 20.4132 19.1483 20.7488 18.8125L21.1875 18.3738C21.5227 18.0404 21.7445 17.6099 21.8212 17.1435C21.8979 16.677 21.8258 16.1982 21.615 15.775L21.3563 15.2575L21.8962 15.0775C22.3452 14.9285 22.7359 14.6417 23.0125 14.258C23.2892 13.8743 23.4379 13.4131 23.4375 12.94V12.31ZM21.1875 12.94L19.6913 13.435C19.5287 13.488 19.3804 13.5774 19.2576 13.6963C19.1348 13.8152 19.0407 13.9605 18.9825 14.1213C18.9499 14.2169 18.9123 14.3108 18.87 14.4025C18.798 14.5536 18.7607 14.7189 18.7607 14.8863C18.7607 15.0536 18.798 15.2189 18.87 15.37L19.5788 16.7763L19.1288 17.2263L17.7225 16.5175C17.5714 16.4455 17.4061 16.4082 17.2388 16.4082C17.0714 16.4082 16.9061 16.4455 16.755 16.5175L16.4738 16.63C16.313 16.6882 16.1677 16.7823 16.0488 16.9051C15.9299 17.0279 15.8405 17.1762 15.7875 17.3388L15.2925 18.835H14.6625L14.1675 17.3388C14.1145 17.1762 14.0251 17.0279 13.9062 16.9051C13.7873 16.7823 13.642 16.6882 13.4813 16.63L13.2 16.5175C13.0543 16.4554 12.8971 16.4247 12.7388 16.4275C12.5635 16.4251 12.3902 16.4636 12.2325 16.54L10.8263 17.2488L10.3763 16.7987L11.085 15.3925C11.157 15.2414 11.1943 15.0761 11.1943 14.9088C11.1943 14.7414 11.157 14.5761 11.085 14.425C11.0427 14.3333 11.0051 14.2394 10.9725 14.1438C10.9143 13.983 10.8202 13.8377 10.6974 13.7188C10.5746 13.5999 10.4263 13.5105 10.2638 13.4575L8.7675 12.9625V12.3325L10.2638 11.8375C10.4263 11.7845 10.5746 11.6951 10.6974 11.5762C10.8202 11.4573 10.9143 11.312 10.9725 11.1513C11.0051 11.0556 11.0427 10.9617 11.085 10.87C11.157 10.7189 11.1943 10.5536 11.1943 10.3863C11.1943 10.2189 11.157 10.0536 11.085 9.9025L10.3763 8.49625L10.8263 8.04625L12.2325 8.755C12.3836 8.82697 12.5489 8.86432 12.7163 8.86432C12.8836 8.86432 13.0489 8.82697 13.2 8.755L13.4813 8.6425C13.642 8.58426 13.7873 8.49017 13.9062 8.36736C14.0251 8.24455 14.1145 8.09626 14.1675 7.93375L14.6625 6.4375H15.2925L15.7875 7.93375C15.8405 8.09626 15.9299 8.24455 16.0488 8.36736C16.1677 8.49017 16.313 8.58426 16.4738 8.6425L16.755 8.755C16.9061 8.82697 17.0714 8.86432 17.2388 8.86432C17.4061 8.86432 17.5714 8.82697 17.7225 8.755L19.1288 8.04625L19.5788 8.49625L18.87 9.9025C18.798 10.0536 18.7607 10.2189 18.7607 10.3863C18.7607 10.5536 18.798 10.7189 18.87 10.87C18.9123 10.9617 18.9499 11.0556 18.9825 11.1513C19.0407 11.312 19.1348 11.4573 19.2576 11.5762C19.3804 11.6951 19.5287 11.7845 19.6913 11.8375L21.1875 12.3325V12.94Z" fill="#D1D1D1"/>
</g>
<defs>
<clipPath id="clip0_249_124">
<rect width="28" height="32" fill="white"/>
</clipPath>
</defs>
</svg>
