<svg width="30" height="32" viewBox="0 0 30 32" fill="none" xmlns="http://www.w3.org/2000/svg">
<path d="M0.0996094 14.692V27.356V28.7282C0.0996094 30.5323 1.57643 32.0001 3.39172 32.0001L26.603 32C28.4761 32 30 30.4857 30 28.6245C30 26.7632 28.4761 25.2489 26.603 25.2489H23.344H22.7591V14.692C22.7591 13.1568 22.1573 11.7129 21.0642 10.626L20.2769 9.84401C20.8004 9.45235 21.1396 8.82992 21.1396 8.13012C21.1396 7.255 20.609 6.50119 19.851 6.16817V2.80229C19.851 1.25713 18.586 0.00012207 17.0311 0.00012207H5.82742C4.27248 0.00012207 3.00747 1.25713 3.00747 2.80229V6.16829C2.24948 6.50131 1.71893 7.25513 1.71893 8.13024C1.71893 8.82999 2.05811 9.45241 2.58153 9.84407L1.79441 10.6262C0.701535 11.7122 0.0996094 13.1561 0.0996094 14.692ZM3.39172 30.747C2.2718 30.747 1.36071 29.8414 1.36071 28.7282V27.9826H16.7503C16.7093 28.1936 16.6879 28.4097 16.6879 28.6245C16.6879 29.3919 16.9562 30.1499 17.4416 30.747H3.39172ZM20.085 30.7469C18.9222 30.7469 17.9493 29.7782 17.9493 28.6242C17.9493 27.4706 18.9225 26.5021 20.085 26.5021H22.7134V30.7469H20.085ZM28.7389 28.6245C28.7389 29.7948 27.7807 30.7469 26.603 30.7469H23.9745V26.5021H26.603C27.7808 26.5021 28.7389 27.4542 28.7389 28.6245ZM21.4825 14.3311H14.1848C13.8365 14.3311 13.5542 14.6116 13.5542 14.9577C13.5542 15.3037 13.8365 15.5842 14.1848 15.5842H21.498V25.2489H20.085C18.9681 25.2489 17.8995 25.8097 17.2732 26.7295H1.36071V15.5842H8.63654C8.98479 15.5842 9.26709 15.3037 9.26709 14.9577C9.26709 14.6116 8.98479 14.3311 8.63654 14.3311H1.37629C1.46091 13.2661 1.91768 12.2759 2.68626 11.5123L3.9316 10.2748H18.9266L20.1724 11.5122C20.941 12.2763 21.3978 13.2665 21.4825 14.3311ZM18.5899 2.80229V5.98584H15.9788V1.25324H17.031C17.8907 1.25324 18.5899 1.9481 18.5899 2.80229ZM12.0598 5.98584V1.25324H14.7176V5.98584H12.0598ZM8.14086 5.98584V1.25324H10.7987V5.98584H8.14086ZM4.26857 2.80229C4.26857 1.9481 4.96792 1.25324 5.82749 1.25324H6.87975V5.98584H4.26857V2.80229ZM3.877 7.23896H18.9815C19.4761 7.23896 19.8784 7.63877 19.8784 8.13024C19.8784 8.62172 19.4761 9.02146 18.9815 9.02146H3.877C3.38246 9.02146 2.98004 8.62165 2.98004 8.13024C2.98004 7.63883 3.38246 7.23896 3.877 7.23896Z" fill="#D1D1D1"/>
<path d="M12.86 19.14C11.5189 19.0607 10.1787 19.1067 8.84236 19.2355V18.65C8.84236 18.4836 8.77571 18.324 8.6571 18.2064L7.88997 17.446C7.77174 17.3288 7.61164 17.2631 7.44467 17.2631H5.86936C5.70239 17.2631 5.54223 17.3288 5.42407 17.446L4.65694 18.2064C4.53833 18.324 4.47168 18.4836 4.47168 18.65V23.7771C4.47168 23.9435 4.53833 24.1032 4.65694 24.2207L5.42407 24.9811C5.5423 25.0983 5.70246 25.164 5.86936 25.164H7.44467C7.61164 25.164 7.7718 25.0983 7.88997 24.9811L8.6571 24.2207C8.77564 24.1032 8.84236 23.9436 8.84236 23.7771V23.1916C10.586 23.3598 12.3214 23.3598 14.0648 23.1916V23.7771C14.0648 23.9435 14.1315 24.1032 14.2501 24.2207L15.0172 24.9811C15.1355 25.0983 15.2956 25.164 15.4625 25.164H17.0378C17.2047 25.164 17.3649 25.0983 17.4831 24.9811L18.2503 24.2207C18.3689 24.1032 18.4355 23.9435 18.4355 23.7771V18.65C18.4355 18.4835 18.3689 18.324 18.2503 18.2064L17.4831 17.446C17.3648 17.3288 17.2047 17.2631 17.0378 17.2631H15.4625C15.2956 17.2631 15.1354 17.3288 15.0172 17.446L14.2501 18.2064C14.1315 18.324 14.0648 18.4836 14.0648 18.65V19.2355C13.6639 19.1968 13.2606 19.1798 12.86 19.14ZM7.18394 23.9109H6.1301L5.73279 23.5171V18.91L6.1301 18.5162H7.18394L7.58125 18.91V19.9309C7.58125 19.9313 7.58119 19.9318 7.58119 19.9322V22.4948C7.58119 22.4952 7.58125 22.4957 7.58125 22.4961V23.517L7.18394 23.9109ZM15.326 18.91L15.7233 18.5162H16.7771L17.1744 18.91V23.5171L16.7771 23.9109H15.7233L15.326 23.5171V22.4948V19.9323V18.91ZM14.0648 21.9332C12.3213 22.1079 10.5859 22.1079 8.84236 21.9332V20.4939C9.26937 20.4512 9.69795 20.4167 10.1221 20.3909C11.0052 20.3387 11.9009 20.3387 12.7842 20.3908C13.2089 20.4166 13.6378 20.4511 14.0649 20.4939L14.0648 21.9332Z" fill="#D1D1D1"/>
<path d="M10.8473 15.1974C10.9509 15.4444 11.2071 15.6014 11.4756 15.5822C11.7438 15.5631 11.9752 15.3687 12.0407 15.1098C12.1753 14.5778 11.5764 14.1414 11.1054 14.4204C10.8398 14.5778 10.7305 14.9143 10.8473 15.1974Z" fill="#D1D1D1"/>
</svg>
