<svg width="33" height="32" viewBox="0 0 33 32" fill="none" xmlns="http://www.w3.org/2000/svg">
<g clip-path="url(#clip0_125_589)">
<path d="M16.917 24.4814C16.6997 23.9634 15.936 23.9848 15.7447 24.5098C15.5497 25.0448 16.1512 25.5416 16.6461 25.2639C16.9188 25.111 17.0374 24.7688 16.917 24.4814Z" fill="#D1D1D1"/>
<path d="M31.8091 2.3152H25.4671V1.90395C25.4671 0.889582 24.6683 0.0314616 23.6475 0.000836742C22.587 -0.0304131 21.7146 0.817707 21.7146 1.86458V2.3152H10.9578V1.90395C10.9578 0.889582 10.159 0.0314616 9.1382 0.000836742C8.07837 -0.0304131 7.20535 0.817707 7.20535 1.86458V2.3152H0.863354C0.516158 2.3152 0.234375 2.59457 0.234375 2.94019V5.76643C0.234375 6.11205 0.516158 6.39142 0.863354 6.39142H1.18791V31.2925C1.18791 31.6257 1.44076 31.9163 1.77474 31.9375C2.14144 31.9613 2.44586 31.6732 2.44586 31.3144V6.39142H3.89692V31.2925C3.89692 31.3 3.89692 31.3069 3.89755 31.3144C3.90824 31.6382 4.15732 31.9169 4.48376 31.9375C4.84982 31.9613 5.15488 31.6732 5.15488 31.3144V6.39142H7.13113L6.73487 9.89765C6.64618 10.6839 6.60153 11.4745 6.60153 12.2658V13.042C6.60153 13.1951 6.65814 13.3433 6.76066 13.4576L10.9578 18.1414V24.6832L10.1615 31.2907C10.1496 31.3894 10.1571 31.4913 10.1917 31.585C10.2867 31.8425 10.527 32 10.7849 32H15.389C15.6626 32 15.9054 31.8238 15.9884 31.5638L16.3406 30.4607L16.6985 31.5663C16.7822 31.825 17.0237 32 17.2973 32H21.8901C21.9908 32 22.0914 31.9807 22.1807 31.935C22.4273 31.8113 22.5556 31.555 22.5254 31.3007C22.5254 31.3007 21.7184 24.6107 21.7146 24.5932V18.1414L25.9118 13.4576C26.0143 13.3433 26.0709 13.1951 26.0709 13.042V12.2658C26.0709 11.4745 26.0263 10.6839 25.9376 9.89765L25.5413 6.39142H27.5176V31.3144C27.5176 31.6594 27.7994 31.9394 28.1466 31.9394C28.4944 31.9394 28.7755 31.6594 28.7755 31.3144V6.39142H30.2266V31.3144C30.2266 31.6594 30.5084 31.9394 30.8556 31.9394C31.2028 31.9394 31.4846 31.6594 31.4846 31.3144V6.39142H31.8091C32.1563 6.39142 32.4381 6.11205 32.4381 5.76643V2.94019C32.4381 2.59457 32.1563 2.3152 31.8091 2.3152ZM22.9726 1.86458C22.9726 1.52583 23.25 1.2502 23.5909 1.2502C23.9318 1.2502 24.2092 1.52583 24.2092 1.86458V2.3152H22.9726V1.86458ZM8.46331 1.86458C8.46331 1.52583 8.74068 1.2502 9.08159 1.2502C9.4225 1.2502 9.69988 1.52583 9.69988 1.86458V2.3152H8.46331V1.86458ZM20.6158 17.4876C20.5133 17.602 20.4567 17.7501 20.4567 17.9032V24.0951H19.088C18.7408 24.0951 18.459 24.3751 18.459 24.7201C18.459 25.0657 18.7408 25.3451 19.088 25.3451H20.541L21.1919 30.75H17.7552L17.1904 29.0032C17.0709 28.6338 16.7281 28.3863 16.3381 28.3863H16.3362C15.945 28.3869 15.6028 28.6363 15.4846 29.0069L14.9286 30.75H11.4937L12.1447 25.3451H13.5543C13.9015 25.3451 14.1832 25.0657 14.1832 24.7201C14.1832 24.3751 13.9015 24.0951 13.5543 24.0951H12.2158V17.9032C12.2158 17.7501 12.1592 17.602 12.0567 17.4876L8.19536 13.1789L10.2106 11.9245L11.1151 12.942C11.2346 13.0764 11.4063 13.1533 11.5868 13.1533H13.6052C13.6643 14.6133 14.8776 15.7832 16.3614 15.7832C17.8458 15.7832 19.0591 14.6133 19.1182 13.1533H21.0857C21.2662 13.1533 21.4379 13.0764 21.5574 12.942L22.4619 11.9245L24.4771 13.1789L20.6158 17.4876ZM7.86263 11.9108C7.87395 11.2858 7.91484 10.657 7.98465 10.037L8.39663 6.39205H9.69988V10.767L7.86263 11.9108ZM13.0045 9.21266V9.84265C13.0045 10.6214 13.2769 11.337 13.7316 11.9033H11.8705L10.9578 10.877V6.39142H12.6473C12.546 6.63392 12.4932 6.89642 12.4932 7.16642V8.59891C12.4932 8.90391 12.7133 9.15766 13.0045 9.21266ZM19.9837 6.39142H21.7146V10.877L20.802 11.9033H18.9408C19.3956 11.337 19.6679 10.6214 19.6679 9.84265V9.22016C19.9837 9.18703 20.2302 8.92141 20.2302 8.59891V7.76142C20.2302 7.27267 20.146 6.81205 19.9837 6.39142ZM18.9723 7.97392H16.5891C16.418 7.97392 16.2582 7.89704 16.1513 7.76454C15.7746 7.29267 15.0229 7.29017 14.6449 7.76329C14.5386 7.89454 14.3757 7.97392 14.2059 7.97392H13.7511V7.16642C13.7511 6.95955 13.8323 6.76517 13.9788 6.61892C14.126 6.4733 14.3204 6.39267 14.5273 6.39142H18.5723C18.8345 6.77017 18.9723 7.23829 18.9723 7.76142V7.97392ZM16.3375 11.9033H16.335C15.1921 11.9026 14.2625 10.9783 14.2625 9.84265V9.22328C14.6776 9.21141 15.0839 9.05266 15.3972 8.78203C15.6022 8.95953 15.8437 9.08766 16.1035 9.15891C16.2595 9.20141 16.423 9.22391 16.5891 9.22391H18.41V9.84265C18.41 10.9783 17.4803 11.9026 16.3375 11.9033ZM17.859 13.1533C17.8011 13.9239 17.152 14.5333 16.3614 14.5333C15.5714 14.5333 14.9223 13.9239 14.8644 13.1533H17.859ZM22.9726 10.767V6.39205H24.2758L24.6878 10.037C24.7576 10.657 24.7985 11.2858 24.8098 11.9108L22.9726 10.767ZM31.1801 5.14143H1.49233V3.56519H31.1801V5.14143Z" fill="#D1D1D1"/>
</g>
<defs>
<clipPath id="clip0_125_589">
<rect width="32.2039" height="32" fill="white" transform="translate(0.234375)"/>
</clipPath>
</defs>
</svg>
